{"title":"Earth 1998 (AMIR KHAN) DVDRip Xvid MP3{TG ENCODER}","uid":11170838,"size":732745573,"categoryP":"video","categoryS":"movies","magnet":"?xt=urn:btih:6a96703d0f3cccf80a6b06c9ba9e1337d71854b2&amp;dn=Earth+1998+%28AMIR+KHAN%29+DVDRip+Xvid+MP3%7BTG+ENCODER%7D&amp;tr=udp%3A%2F%2Ftracker.openbittorrent.com%3A80&amp;tr=udp%3A%2F%2Fopen.demonii.com%3A1337&amp;tr=udp%3A%2F%2Ftracker.coppersurfer.tk%3A6969&amp;tr=udp%3A%2F%2Fexodus.desync.com%3A6969","seeders":4,"leechers":2,"uploader":"inovai","files":5,"time":1412701360,"description":"Earth 1998 (AMIR KHAN) DVDRip Xvid MP3{TG ENCODER}\n\nCover:\n &lt;a href=&quot;\nhttp://forum.primetimeshow.in/viewtopic.php?f=7&amp;t=756&quot; rel=&quot;nofollow&quot; target=&quot;_NEW&quot;&gt;\nhttp://forum.primetimeshow.in/viewtopic.php?f=7&amp;t=756&lt;/a&gt;\n\nScreenshots:\n &lt;a href=&quot;\nhttp://m.primetimeshow.in/share-2C5A_5433FE73.html&quot; rel=&quot;nofollow&quot; target=&quot;_NEW&quot;&gt;\nhttp://m.primetimeshow.in/share-2C5A_5433FE73.html&lt;/a&gt;\n &lt;a href=&quot;\nhttp://m.primetimeshow.in/share-BBD1_5433FE73.html&quot; rel=&quot;nofollow&quot; target=&quot;_NEW&quot;&gt;\nhttp://m.primetimeshow.in/share-BBD1_5433FE73.html&lt;/a&gt;\n &lt;a href=&quot;\nhttp://m.primetimeshow.in/share-1DD8_5433FE73.html&quot; rel=&quot;nofollow&quot; target=&quot;_NEW&quot;&gt;\nhttp://m.primetimeshow.in/share-1DD8_5433FE73.html&lt;/a&gt;\n &lt;a href=&quot;\nhttp://m.primetimeshow.in/share-780D_5433FE73.html&quot; rel=&quot;nofollow&quot; target=&quot;_NEW&quot;&gt;\nhttp://m.primetimeshow.in/share-780D_5433FE73.html&lt;/a&gt;\n &lt;a href=&quot;\nhttp://m.primetimeshow.in/share-2A6C_5433FE73.html&quot; rel=&quot;nofollow&quot; target=&quot;_NEW&quot;&gt;\nhttp://m.primetimeshow.in/share-2A6C_5433FE73.html&lt;/a&gt;\n\nComplete name : Earth 1998 (AMIR KHAN) DVDRip Xvid MP3{TG ENCODER}\nFormat : AVI\nFormat/Info : Audio Video Interleave\nFile size : 699 MiB\nDuration : 1h 41mn\nOverall bit rate mode : Variable\nOverall bit rate : 964 Kbps\nWriting application : VirtualDubMod 1.5.4.1 (build 2178/release)\nWriting library : VirtualDubMod build 2178/release\n\nVideo\nID : 0\nFormat : MPEG-4 Visual\nFormat profile : Advanced Simple@L5\nFormat settings, BVOP : 1\nFormat settings, QPel : No\nFormat settings, GMC : No warppoints\nFormat settings, Matrix : Custom\nCodec ID : XVID\nCodec ID/Hint : XviD\nDuration : 1h 41mn\nBit rate : 836 Kbps\nWidth : 608 pixels\nHeight : 336 pixels\nDisplay aspect ratio : 16:9\nFrame rate : 29.970 fps\nColor space : YUV\nChroma subsampling : 4:2:0\nBit depth : 8 bits\nScan type : Progressive\nCompression mode : Lossy\nBits/(Pixel*Frame) : 0.137\nStream size : 606 MiB (87%)\nWriting library : XviD 1.2.1 (UTC 2008-12-04)\n\nAudio\nID : 1\nFormat : MPEG Audio\nFormat version : Version 1\nFormat profile : Layer 3\nMode : Joint stereo\nMode extension : MS Stereo\nCodec ID : 55\nCodec ID/Hint : MP3\nDuration : 1h 41mn\nBit rate mode : Variable\nBit rate : 115 Kbps\nNominal bit rate : 128 Kbps\nChannel(s) : 2 channels\nSampling rate : 48.0 KHz\nCompression mode : Lossy\nStream size : 83.1 MiB (12%)\nAlignment : Aligned on interleaves\nInterleave, duration : 24 ms (0.72 video frame)\nInterleave, preload duration : 589 ms\nWriting library : LAME3.98r\nEncoding settings : -m j -V 4 -q 2 -lowpass 17 --abr 128\n\n\nThanks to TG ENCODER!!\n\nSeed n Enjoy!!","torrent":{"xt":"urn:btih:6a96703d0f3cccf80a6b06c9ba9e1337d71854b2","amp;dn":"Earth+1998+%28AMIR+KHAN%29+DVDRip+Xvid+MP3%7BTG+ENCODER%7D","amp;tr":["udp%3A%2F%2Ftracker.openbittorrent.com%3A80","udp%3A%2F%2Fopen.demonii.com%3A1337","udp%3A%2F%2Ftracker.coppersurfer.tk%3A6969","udp%3A%2F%2Fexodus.desync.com%3A6969"],"infoHash":"6a96703d0f3cccf80a6b06c9ba9e1337d71854b2","infoHashBuffer":{"type":"Buffer","data":[106,150,112,61,15,60,204,248,10,107,6,201,186,158,19,55,215,24,84,178]},"announce":[],"urlList":[]}}